<svg width="70" height="24" viewBox="0 0 70 24" fill="none" xmlns="http://www.w3.org/2000/svg">
<path d="M13.0092 7.17969C12.9098 6.24929 12.4908 5.52486 11.7521 5.00639C11.0206 4.48793 10.0689 4.22869 8.89702 4.22869C8.07315 4.22869 7.36648 4.35298 6.77699 4.60156C6.1875 4.85014 5.73651 5.1875 5.42401 5.61364C5.11151 6.03977 4.9517 6.52628 4.9446 7.07315C4.9446 7.5277 5.04759 7.92187 5.25355 8.25568C5.46662 8.58949 5.75426 8.87358 6.11648 9.10795C6.47869 9.33523 6.87997 9.52699 7.32031 9.68324C7.76065 9.83949 8.20455 9.97088 8.65199 10.0774L10.6974 10.5888C11.5213 10.7805 12.3132 11.0398 13.0732 11.3665C13.8402 11.6932 14.5256 12.1051 15.1293 12.6023C15.7401 13.0994 16.223 13.6996 16.5781 14.4027C16.9332 15.1058 17.1108 15.9297 17.1108 16.8743C17.1108 18.1527 16.7841 19.2784 16.1307 20.2514C15.4773 21.2173 14.5327 21.9737 13.2969 22.5206C12.0682 23.0604 10.5803 23.3303 8.8331 23.3303C7.13565 23.3303 5.66193 23.0675 4.41193 22.5419C3.16903 22.0163 2.19602 21.2493 1.4929 20.2408C0.796875 19.2322 0.420455 18.0036 0.363636 16.5547H4.25213C4.30895 17.3146 4.54332 17.9467 4.95526 18.451C5.36719 18.9553 5.90341 19.3317 6.56392 19.5803C7.23153 19.8288 7.97727 19.9531 8.80114 19.9531C9.66051 19.9531 10.4134 19.8253 11.0597 19.5696C11.7131 19.3068 12.2244 18.9446 12.5938 18.483C12.9631 18.0142 13.1513 17.4673 13.1584 16.8423C13.1513 16.2741 12.9844 15.8054 12.6577 15.4361C12.331 15.0597 11.8729 14.7472 11.2834 14.4986C10.701 14.2429 10.0192 14.0156 9.23793 13.8168L6.75568 13.1776C4.95881 12.7159 3.53835 12.0163 2.49432 11.0788C1.45739 10.1342 0.938921 8.88068 0.938921 7.31818C0.938921 6.03267 1.28693 4.90696 1.98295 3.94105C2.68608 2.97514 3.64134 2.22585 4.84872 1.69318C6.05611 1.15341 7.4233 0.883522 8.95028 0.883522C10.4986 0.883522 11.8551 1.15341 13.0199 1.69318C14.1918 2.22585 15.1115 2.96804 15.7791 3.91974C16.4467 4.86435 16.7912 5.95099 16.8125 7.17969H13.0092ZM30.8936 16.1179V6.63636H34.7502V23H31.0108V20.0916H30.8404C30.4711 21.0078 29.8638 21.7571 29.0186 22.3395C28.1806 22.9219 27.1472 23.2131 25.9185 23.2131C24.8461 23.2131 23.8979 22.9751 23.074 22.4993C22.2573 22.0163 21.6181 21.3168 21.1564 20.4006C20.6948 19.4773 20.464 18.3622 20.464 17.0554V6.63636H24.3205V16.4588C24.3205 17.4957 24.6046 18.3196 25.1728 18.9304C25.7409 19.5412 26.4867 19.8466 27.41 19.8466C27.9782 19.8466 28.5286 19.7081 29.0613 19.4311C29.5939 19.1541 30.0307 18.7422 30.3716 18.1953C30.7196 17.6413 30.8936 16.9489 30.8936 16.1179ZM42.5724 13.4119V23H38.7159V6.63636H42.402V9.4169H42.5938C42.9702 8.50071 43.5703 7.77273 44.3942 7.23295C45.2251 6.69318 46.2514 6.4233 47.473 6.4233C48.6023 6.4233 49.5859 6.66477 50.424 7.14773C51.2692 7.63068 51.9226 8.33026 52.3842 9.24645C52.853 10.1626 53.0838 11.2741 53.0767 12.581V23H49.2202V13.1776C49.2202 12.0838 48.9361 11.228 48.3679 10.6101C47.8068 9.99219 47.0291 9.68324 46.0348 9.68324C45.3601 9.68324 44.7599 9.83239 44.2344 10.1307C43.7159 10.4219 43.3075 10.8445 43.0092 11.3984C42.718 11.9524 42.5724 12.6236 42.5724 13.4119ZM61.8658 13.4545L62.1108 9.13991L58.4886 11.5156L57.1889 9.2571L61.0561 7.31818L57.1889 5.37926L58.4886 3.12074L62.1108 5.49645L61.8658 1.18182H64.4545L64.2202 5.49645L67.8423 3.12074L69.142 5.37926L65.2642 7.31818L69.142 9.2571L67.8423 11.5156L64.2202 9.13991L64.4545 13.4545H61.8658Z" fill="#FF2200"/>
</svg>
