<svg xmlns="http://www.w3.org/2000/svg" width="20" height="20" viewBox="0 0 20 20">
  <g id="user-circle-svgrepo-com" transform="translate(-2 -2)">
    <path id="Path_355" data-name="Path 355" d="M2,12A10,10,0,1,1,12,22,10,10,0,0,1,2,12ZM12,6a4,4,0,1,0,4,4A4,4,0,0,0,12,6Zm5.112,10a1.317,1.317,0,0,1,.031,2.131,8,8,0,0,1-10.257.023,1.32,1.32,0,0,1,.028-2.14,4.791,4.791,0,0,1,.775-.4A11.564,11.564,0,0,1,12,15a11.788,11.788,0,0,1,4.331.6A4.726,4.726,0,0,1,17.111,16Z" fill="#f20" fill-rule="evenodd"/>
  </g>
</svg>
